<?xml version="1.0" encoding="UTF-8" standalone="no"?>
<svg xmlns:rdf="http://www.w3.org/1999/02/22-rdf-syntax-ns#" xmlns="http://www.w3.org/2000/svg" xml:space="preserve" height="468.87" viewBox="0 0 384.91479 468.86777" width="384.91" version="1.1" xmlns:cc="http://creativecommons.org/ns#" xmlns:dc="http://purl.org/dc/elements/1.1/"><g transform="matrix(1.25 0 0 -1.25 -190.46 729.74)"><g style="" transform="matrix(.5 0 0 .5 154.4 198.68)"><path d="m545.82 471.95c-54.73 31.797-108.59 24.44-149.44 6.2411-1.8024 13.437-5.3063 28.172-11.15 45.422-8.6622 25.657-18.158 50.177-26.531 71.819-10.996 28.421-19.369 52.773-23.969 69.062l-29.77 102.05-30.91-102.11c-4.72-16.23-12.87-40.71-23.81-69.15-8.33-21.66-17.75-46.21-26.36-71.86-5.79-17.28-9.28-32.04-11.05-45.49-40.89 18.12-94.78 25.37-149.43-6.55-44.67-26.12-68.599-71.52-62.445-118.49 5.6156-42.73 34.837-76.3 76.238-87.68l30.835-8.4672 7.5457 31.064c1.0828 4.2167 12.213 43.109 47.238 42.403 24.292-0.5044 44.461-21.978 54.549-35.859-3.2618-9.8257-4.9902-21.595-3.3358-34.272l-13.713 18.299-24.816-18.494c-22.341-16.645-54.777-57.77-34.736-106.31 8.7429-21.164 27.54-35.583 52.921-40.641 15.522-3.0869 33.156-2.3673 49.498 1.224 6.4294-20.64 18.152-45.611 39.471-67.912l22.496-23.498 22.415 23.552c21.279 22.355 32.92 47.366 39.329 68.013 16.349-3.5308 33.969-4.2168 49.498-1.0895 25.361 5.0977 44.118 19.57 52.82 40.762 19.94 48.583-12.623 89.634-34.985 106.22l-24.85 18.42-13.679-18.313c1.6477 12.677-0.1345 24.433-3.4097 34.272 10.054 13.894 30.17 35.422 54.461 35.974 35.032 0.7868 46.23-38.079 47.4-42.517l7.6063-31.051c-0.0471 0.2354 30.761 8.7765 30.761 8.7765 41.394 11.453 70.514 45.12 76.029 87.872 6.046 46.956-17.99 92.304-62.72 118.31"/><path d="m294.69 660.06c-3.7729-17.768-13.498-43.055-24.762-72.357-8.2452-21.454-17.593-45.766-26.047-70.985-8.1107-24.231-11.42-42.288-11.42-59.129 0-5.387 0.6188-10.653 1.2509-15.946-31.185 21.413-92.634 50.688-159.65 11.52-37.224-21.763-57.219-59.122-52.188-97.516 4.479-34.151 27.816-61.025 60.911-70.118l9.8189-2.6901 2.4413 9.9131c0.612 2.4345 15.36 59.599 68.181 58.53 42.517-0.8541 70.306-42.188 77.812-54.892-3.5711-6.6043-6.5303-15.71-6.5303-26.161 0-11.204 3.8065-23.949 13.538-36.727-3.8805-5.2592-10.236-11.702-17.654-12.321-10.579-0.8676-21.286 10.27-28.394 19.779l-5.9452 7.9224-7.9425-5.925c-16.248-12.112-42.995-44.689-27.856-81.335 6.0527-14.648 19.032-24.325 37.54-28.004 19.12-3.793 43.264-0.343 60.413 7.4785 3.3223-19.355 12.738-52.101 39.693-80.273l7.196-7.5256 7.1759 7.539c26.894 28.253 36.229 61.025 39.504 80.387 17.176-7.7744 41.36-11.177 60.48-7.3171 18.468 3.7191 31.42 13.437 37.433 28.085 15.031 36.673-11.756 69.196-28.031 81.268l-7.956 5.8981-5.925-7.9493c-7.0952-9.5096-17.782-20.687-28.367-19.833-7.418 0.6053-13.787 7.028-17.674 12.267 9.6575 12.758 13.45 25.455 13.45 36.633 0 10.512-2.9994 19.651-6.6042 26.276 7.4852 12.711 35.193 54.145 77.684 55.087 52.82 1.1836 67.71-55.954 68.315-58.389l2.4682-9.8728 9.8189 2.6902c33.061 9.1665 56.338 36.081 60.736 70.246 4.9498 38.408-15.125 75.726-52.397 97.402-67.152 39.047-128.57 9.5633-159.68-11.931 0.5784 5.1515 1.1769 10.263 1.1769 15.515 0 17.022-3.2886 35.375-11.467 59.579-8.5007 25.173-17.903 49.444-26.188 70.864-11.346 29.282-21.124 54.569-24.931 72.337l-9.7718 45.557-9.6508-45.577" fill="#fff"/><path d="m305.15 67.692c38.025 39.948 38.482 90.334 38.482 90.334 16.827-16.773 82.216-27.991 96.884 7.734 16.073 39.222-24.769 69.526-24.769 69.526-39.585-53.062-66.143-1.1298-66.143-1.1298 30.143 32.577 7.5255 61.946 7.5255 61.946 1.9705 5.898 35.402 64.26 88.928 65.457 61.691 1.3921 78.175-65.928 78.175-65.928 64.69 17.93 77.186 108.12 5.999 149.5-90.334 52.524-169.03-27.493-169.03-27.493 7.3171 29.948 9.402 52.329-5.36 96.064-20.028 59.297-44.568 112.28-51.428 144.3-6.7992-32.026-31.225-85.095-51.099-144.43-14.661-43.775-12.509-66.156-5.1449-96.077 0 0-78.887 79.822-169.09 27.096-71.1-41.556-58.382-131.69 6.3487-149.48 0 0 16.315 67.36 78.013 66.096 53.54-1.0626 87.092-59.344 89.076-65.228 0 0-22.55-29.436 7.6735-61.933 0 0-26.45-52.02-66.136 0.955 0 0-40.796-30.392-24.615-69.573 14.755-35.691 80.105-24.319 96.891-7.5055 0 0 0.5784-50.386 38.684-90.24"/><path d="m466.96 447.95c-73.514-0.074-133.79-83.562-133.79-83.562 2.6094 13.659 34.037 75.121 5.6022 148.58-28.448 73.453-34.252 103.04-34.252 103.04l-0.1345-0.8406v0.8205s-5.7501-29.598-34.01-103.13c-28.273-73.528 3.3021-134.92 5.9384-148.55 0 0-60.474 83.333-133.98 83.239-73.514-0.09-134.71-83.74-66.788-133.15 0 0 19.88 61.725 88.39 61.852 50.392 0.1076 100.87-53.943 103-80.73 0 0-23.068-32.57 9.0052-59.828 0 0-34.649-72.889-82.687-20.384 0 0-36.935-46.216 11.366-57.4 38.327-8.8706 76.083 30.008 76.083 30.008s-4.1226-61.415 24.265-94.981v0.30263l0.1479-0.28918c28.313 33.626 24.043 95.048 24.043 95.048s37.843-38.798 76.17-29.833c48.274 11.298 11.218 57.434 11.218 57.434-47.904-52.612-82.707 20.183-82.707 20.183 31.985 27.338 8.8437 59.848 8.8437 59.848 2.0647 26.767 52.41 80.952 102.82 80.966 68.517 0 88.545-61.657 88.545-61.657 67.811 49.558 6.4024 133.1-67.098 133.01" fill="#9f8958"/></g></g></svg>
