<?xml version="1.0" encoding="UTF-8" standalone="no"?>
<svg xmlns:rdf="http://www.w3.org/1999/02/22-rdf-syntax-ns#" xmlns="http://www.w3.org/2000/svg" xml:space="preserve" height="387.13" viewBox="0 0 387.13037 387.12613" width="387.13" version="1.1" xmlns:cc="http://creativecommons.org/ns#" xmlns:dc="http://purl.org/dc/elements/1.1/"><g transform="matrix(1.25 0 0 -1.25 -196.63 694.86)"><g transform="matrix(.5 0 0 .5 159.53 202.3)"><path d="m0 395.7c0-168.56 137.14-305.7 305.7-305.7s305.7 137.14 305.7 305.7-137.14 305.7-305.7 305.7-305.7-137.13-305.7-305.7"/><path d="m305.7 96.704c165.12 0 298.99 133.87 298.99 299 0 165.12-133.87 298.99-298.99 298.99-165.13 0-299-133.87-299-298.99 0-165.13 133.87-299 299-299" fill="#a5acaf"/><path d="m305.7 145.55c137.75 0 249.42 111.67 249.42 249.42s-111.67 249.43-249.42 249.43c-137.76 0-249.43-111.68-249.43-249.43s111.67-249.42 249.43-249.42" fill="#fff"/><path d="m307 394.63c2.8812 102.16 99.385 126.15 123.63 123.95-59.77 3.2456-118.76 28.503-123.31 123.02-7.21-87.9-42.48-112.89-123.75-123.32 58.05-2.94 116.82-25.91 123.43-123.65" fill="#eead1e"/><path d="m430.97 268.18c2.88 102.16 97.69 127.37 121.94 125.17-59.97 2.22-117.73 30.72-122.28 125.23-7.2-87.9-42.35-113.52-123.63-123.95 58.05-2.94 117.36-28.71 123.97-126.45" fill="#c60c30"/><path d="m308.5 146.59c2.8744 102.18 98.223 123.8 122.48 121.6-59.77 3.2525-119.42 31.927-123.97 126.45-7.21-87.91-41.44-114.31-122.71-124.74 58.05-2.96 117.58-25.59 124.2-123.31" fill="#00539b"/><path d="m123.45 340.83c-2.9507 0.0196-5.954 0.64793-8.7637 1.8809-3.378 1.4784-5.7168 4.1599-7.3672 7.0996-1.6503 2.974-2.5789 5.3372-2.7852 8.7324-0.42978 7.1686 3.1549 14.724 9.9023 18.936 4.7275 2.9569 8.191 3.3438 12.205 7.2031 2.1316 2.0286 1.9611 7.2978 1.2734 8.5098-1.9512 3.4554-7.0233 2.1834-8.2695 0.87695-1.255-1.3151-1.8039-6.0519-1.5547-7.9258l-13.385 0.0781c-0.51574 5.8965-0.11014 9.5246 1.6777 13.521 1.8136 4.0742 4.3575 5.6039 7.6582 7.1856 7.1687 3.4038 16.839 3.1189 23.818-3.3965 1.7105-1.5901 2.3281-3.4551 2.3281-3.4551 1.6245-3.9454 3.4393-8.4142 2.1758-15.617-0.59313-3.3695-2.055-6.1283-2.8027-7.1856-2.4841-3.507-4.3244-5.0974-10.969-8.3379 0.15475 0-2.0968-0.96289-1.9336-0.96289-7.0311-2.2434-9.8239-6.5404-7.6406-11.113 1.2034-2.5442 5.7582-3.5594 7.7695-1.7285 1.358 1.2462 1.6676 3.9105 1.7793 5.9648l4.6856-0.0332h8.6113c0.18049-5.9309-1.0912-9.2672-2.3633-11.502-3.3271-5.874-9.5592-8.7736-16.051-8.7305zm113.8 1.2266v65.895h12.627v-65.859l-12.627-0.0352zm-76.018 7.5723-12.533 6.877v4.3145l-4.959 0.15625 0.0508 10.795 4.6758-0.1543 0.0957 24.814c0.0516 13.177 11.345 11.149 17.311 11.295l0.01-14.01c-5.0541 0.0774-4.5996-0.92876-4.5996-3.4473v-18.412l4.8223 0.0781-0.0508-11.062-4.7715 0.10352-0.0508-11.348zm166.67 10.59c-2.1275 0.0311-4.263 0.48102-6.248 1.4453-1.9081 0.91975-3.3012 0.72076-6.4902 4.666-1.5128 1.8652-1.9418 4.6331-2.0879 7.0312-0.30088 5.0714 1.3751 11.759 8.2773 13.504 3.8594 0.97125 8.2523 1.479 10.307 4.582 1.126 1.6932 0.79814 2.3974 0.29102 3.6953-0.72213 1.8395-4.8211 1.8147-6.4629 1.1699-1.6245-0.61887-2.6388-2.5184-2.4238-4.1602l-10.504 0.0684c0.19763 4.057 0.23218 6.5159 1.7793 9.5156 1.4956 2.9054 4.5116 5.0191 7.2793 5.8613 5.6386 1.7105 11.845 1.4107 16.443-1.4258 0.84237-0.52438 3.2073-2.6746 4.1699-4.4024 1.5816-2.888 2.5179-6.5838 1.0996-11.432-0.67038-2.338-0.73903-2.6033-1.1602-3.4199-2.5012-4.7705-5.7165-5.6989-9.043-6.8164 0.11175 0-3.0942-0.74024-2.9824-0.74024-5.8621-0.66187-6.2228-3.9785-5.4492-6.2305 0.64463-1.8652 2.1313-2.4844 4.0566-2.4844 1.6332 0.0171 3.2401 1.1599 3.541 2.3633 0.20625 0.8595 0.18164 1.8486 0.18164 2.9746l10.865 0.0508c-0.086-4.229-0.86073-8.6133-3.2246-10.994-2.8956-2.937-7.5344-4.8907-12.215-4.8223zm-20.104 0.23243c-4.1431 0.92825-5.2434 2.8548-7.0742 6.0781l-0.0527-5.8711-12.17 0.1289v46.76h12.402v-27.102c0.1375-2.8194-0.55807-6.4912 9.9199-5.752v-14.242h-3.0254zm-123.38 0.42382c-2.5066-0.0505-5.2341 0.51411-8.7539 2.0527-4.1259 2.7161-6.5152 6.4461-6.2832 10.727v22.812c0.23213 5.6559 2.683 9.6696 7.7285 11.518 3.8336 0.8165 7.9408 2.0458 14.508 0 6.1888-2.1318 7.7097-6.1117 7.6152-9.7734l-0.0254-5.5098-10.305 0.0527v1.332c-0.232 5.2862-9.3961 4.427-9.4219 0.23242l0.0176-6.4297h19.734v-14.475c-0.0602-4.7534-2.3286-8.1576-7.3828-10.908-2.6388-0.91537-4.925-1.5804-7.4316-1.6309zm34.213 0c-2.5056-0.0505-5.2317 0.51411-8.7559 2.0527-4.1259 2.7161-6.5153 6.4461-6.2832 10.727v22.812c0.23212 5.6559 2.6809 9.6696 7.7266 11.518 3.8422 0.8165 7.9428 2.0458 14.51 0 6.1888-2.1318 7.7011-6.1117 7.6152-9.7734l-0.0254-5.5098-10.307 0.0527v1.332c-0.232 5.2862-9.3942 4.427-9.4199 0.23242l0.0176-6.4297h19.734v-14.475c-0.0602-4.7534-2.3286-8.1576-7.3828-10.908-2.6388-0.91537-4.9241-1.5804-7.4297-1.6309zm50.23 0c-2.5056-0.0505-5.2298 0.51411-8.7539 2.0527-4.1345 2.7161-6.5152 6.4461-6.2832 10.727v22.812c0.23213 5.6559 2.6811 9.6696 7.7266 11.518 3.8422 0.8165 7.9428 2.0458 14.51 0 6.1888-2.1318 7.7086-6.1117 7.6055-9.7734l-0.0156-5.5098-10.314 0.0527v1.332c-0.2235 5.2862-9.3872 4.427-9.4043 0.23242l-0.043-6.4297h19.787v-14.475c-0.0516-4.7534-2.3294-8.1576-7.375-10.908-2.6474-0.91537-4.9338-1.5804-7.4394-1.6309zm-84.641 10.742c2.9339-0.14504 6.0736 2.1906 5.0508 6.5332l-9.3359-0.0351c-0.7333-4.3112 1.6964-6.3701 4.2852-6.498zm34.209 0c2.9339-0.14504 6.0736 2.1906 5.0508 6.5332l-9.334-0.0351c-0.7333-4.3112 1.6945-6.3701 4.2832-6.498zm50.232 0c2.9339-0.14504 6.0736 2.1906 5.0508 6.5332l-9.334-0.0351c-0.7333-4.3112 1.6945-6.3701 4.2832-6.498z" transform="matrix(.8 0 0 -.8 6.7045 705.1)"/></g></g></svg>
