<?xml version="1.0" encoding="UTF-8" standalone="no"?>
<svg xmlns:rdf="http://www.w3.org/1999/02/22-rdf-syntax-ns#" xmlns="http://www.w3.org/2000/svg" xml:space="preserve" height="412.25" viewBox="0 0 382.99805 412.25363" width="383" version="1.1" xmlns:cc="http://creativecommons.org/ns#" xmlns:dc="http://purl.org/dc/elements/1.1/"><g transform="matrix(1.25 0 0 -1.25 -189.5 700.4)"><g style="" transform="matrix(.5 0 0 .5 153.4 198.11)"><g><path d="m366.76 720.42c-99.033 0-184.03-60.087-220.55-145.79l-35.542-0.0456v-7.8388h32.39c-10.254-26.681-15.932-55.66-15.932-85.954 0-132.34 107.29-239.63 239.63-239.63 132.35 0 239.63 107.29 239.63 239.63 0 132.35-107.28 239.63-239.63 239.63" fill="#ffb612"/><path d="m366.76 274.6c113.88 0 206.19 92.321 206.19 206.19 0 113.88-92.308 206.19-206.19 206.19s-206.19-92.314-206.19-206.19c0-113.87 92.308-206.19 206.19-206.19" fill="#fff"/><path d="m236.97 500.31s-16.856-40.789-16.127-73.036c0 0 5.254 12.09 7.0835 10.02 0 0-15.144-50.816-3.659-79.886 0 0 2.4415 8.0602 6.5953 12.95 0 0 6.3479 10.02 8.7894 18.08 0 0 1.224-3.4245 1.9597-9.5315 0 0 5.6122 7.0835 6.8362 11.973 0.957 3.8283 3.418 8.0602 5.1303 12.943l1.9597-0.9766s11.472 13.926 15.873 26.628c0 0 3.4181 0.4883 1.7123-9.5251 0 0 9.525 9.2777 9.7724 23.692l1.9532-2.2006c8.0602-10.013 8.0602-25.405 7.8193-34.93-1.9597-30.535-17.592-46.903-37.13-64.735l1.7058-1.4649c29.07 5.3713 48.224 8.5094 77.678 0 11.224-3.2423 38.354-15.632 51.545-23.946 0 0 29.317-12.702 49.832-12.702 0 0 0.9766-0.4818 0.9766 0.6185 0 0-2.1941 7.5719-0.2409 36.03 0 0 2.1941 13.191 3.9064 22.227 0 0 2.2006 6.107 2.4415 18.568 0.0195 1.0026-0.9766 8.5484 4.1538 7.8192 11.133-1.5951 17.344 0.9701 25.893 2.4415 0 0 9.0367 2.6824 12.709 2.9298 0 0 8.5876-1.3737 11.231-0.4883 2.9298 0.9766 6.107 3.4181 10.013 7.0836 0 0 4.4011 4.6421 1.4714 15.144 0 0-2.9363 9.5251-1.224 12.461 0 0 2.5651 6.4716 6.3543 10.254 0 0 2.6824 4.4012-0.9831 6.6017 0 0-1.9532 2.1941 1.3477 3.0535 0 0 2.4415-0.2474 4.0301 0.612 0 0 0.8594 0.3646 0.9766 2.1941 0.1302 1.9662 0.9766 11.485-5.3713 19.786 0 0 1.8295-0.4883 3.1707-0.9766 0 0 7.8193-0.7292 11.849 1.224 3.5353 1.9531 8.6787 4.3946 7.9365 16.12-1.9532 9.7725-5.8596 15.632-9.7725 26.628-4.6421 11.726-5.3713 17.585-15.144 25.645-5.8595 2.6889-8.5484 7.0771-4.1537 11.485 3.4245 5.1304 2.2005 14.408-3.9064 20.762-5.8661 5.8596-10.254 14.903-12.455 19.545-2.9298 4.883-6.1135 10.261-9.0433 13.432-2.9297 3.6655-7.3244 5.8596-15.144 15.144 0 0-4.6421 4.1538-5.3713 8.555-6.5953 10.261-24.916 24.669-45.926 26.134-6.1135 0.7357-6.1135 0.7357-10.502 1.224-7.331 2.6889-30.294 3.4181-45.926-0.9766-5.0653-1.0873-15.144-2.9363-15.144-2.9363-5.3778-1.7058-12.95-3.1707-21.257-8.301-6.1005-3.1772-15.144-10.749-21.986-15.639-7.3245-7.3245-23.692-18.074-32.729-24.174-17.585-12.956-32.729-30.053-41.531-40.802 0 0-22.227-27.846-33.224-75.966-0.7291-7.331-2.6823-14.414-1.4583-22.475 0 0 9.7724 21.251 18.803 27.846 0 0-1.2175-3.9064-1.9467-10.261 0 0 4.6421 8.555 6.5888 10.013 0 0 3.4246 3.6655 8.3075 9.5316 0 0 10.261 13.431 13.191 14.903-3.7892-7.0901-4.6421-11.732-5.0067-19.057 1.5886 1.4649 2.5652 2.5652 3.0535 3.418 0 0 0.9766 1.9532 1.9532 1.4649 0.4883-1.2174-0.2409-2.2006-0.2409-2.2006"/><path d="m486.64 196.31c-0.7418 0.0182-1.6131 0.11252-3.0078 0.33203-0.49638 0.0895-1.8796 1.6452-2.3516 1.6289-2.1648-0.0814-4.7044-0.67551-5.7949 0.53711-1.7416 1.9288 0.35763 1.7087 2.5469 2.7422 1.2208 0.586 3.8001 1.9698 5.2812 1.9453 6.177-0.11387 10.125-0.17203 14.951 2.4648 0.529 0.28475 2.6938 2.425 2.832 3.2227-4.6144-0.0895-11.866-1.8962-17.172-1.4648 8.9359-0.72438-9.0897 0.24447-13.045 0.0898-1.1475-0.0489-1.1732 2.3679 0.66602 3.7188 0.48012 0.34188 3.1992-0.16189 3.5898 0.70899 1.6195-0.84638 6.161-0.42393 7.5039 0.0645 2.2869 0.83 0.97589 0.46361 2.9941 1.5215 1.2534 0.643 2.385 1.5382 3.8418 1.3672 1.8556-0.21975 1.9934-2.9609 3.8652-2.082 0.62663 0.30112 2.0501 1.1641 2.3594 1.1641 10.58-0.20337 10.817 3.1078 15.773 3.0508 1.2859-0.0163 3.1976-0.51259 4.0684 0.0977 1.9939 1.3836 3.8739 1.5312 6.9258 0.31055 0 0 7.0228 18.937 5.1836 53.436-1.8229 14.657-2.7424 17.408-6.1035 29.314 0 0-4.8819 18.929-3.0508 32.064 1.8311 44.272-11.599 80.919-26.256 105.34-5.5015 6.7222-8.552 10.385-3.0586 15.268 11.605 10.686 21.07 13.135 37.559 16.797 5.8025 1.831 9.4633 2.4414 14.965 2.4414 8.5452 0 21.982 3.6623 28.086 8.2442 5.8026 3.0519 21.379 8.8558 30.844 7.334 8.2441 0.61037 10.695 1.2122 14.658 2.7422 2.7508 1.2208 5.5008 1.2201 8.5527 0.30859 2.588-1.8392 1.3755-1.0741 4.7285-3.5156 0.61038-1.5219 5.0365-3.5076 4.125-9.6113-0.30925-4.5736-2.1393-9.3192-3.0508-13.592-2.6369-3.7762-2.4428-6.5659-1.5312-10.529 2.7508-5.5015 5.9583-8.2535 7.6348-10.996 3.6621-4.1261 1.5219-7.0231-3.5156-8.3984-2.4415-1.0742-7.1697-0.61034-12.053-1.0742-2.6042 0-4.7378-1.0658-8.4082-0.30078 0 0-2.4332 1.6757-3.8086 2.8965l-1.8301-1.0664s1.6757-4.8817 5.1914-7.7871c3.5076 0.6185 8.6116 1.0085 11.289 0.3086 3.182-1.4324 6.8114-2.0173 9.4727-3.0508 4.5819-0.46387 6.7137-0.15464 12.207 0.14649 0 0 2.7499-11.907-6.8613-20.916-2.295-2.1322-4.1252-4.8825-7.4863-5.0371-11.605 1.3752-18.018-3.3532-19.85-4.582-2.8972-0.1465-3.8079 1.0732-5.3379 2.9043-3.9714 6.714-8.7012 9.0098-8.7012 9.0098l-2.4492-0.30859s2.1406-3.664 7.0234-9.7676c2.1404-4.8911 5.1926-10.995 7.9434-14.055 1.6765-2.8972 2.1398-9.4638 6.2578-11.295 1.9858 0 2.2945-0.45642 3.8164 0.45508-3.0519 2.9054-11.604 13.29-2.75 19.703 3.6622 3.0519 9.164 3.0522 10.531-0.1543 0.68363-1.7579 2.1393-2.8971 2.9043-3.5156 4.5819-0.9115 8.4 1.375 9.9219 2.5957 3.6704 4.2808 5.8014 6.2662 7.6406 7.1777 1.9776 1.53 5.6412 1.2207 7.4805 1.2207 5.9491-1.0661 9.1624-4.426 10.229-6.5664 3.2065-6.7141 2.5978-13.282-1.9922-21.217-2.7345-4.5819-4.5745-9.7745-6.7148-16.188-0.9115-2.5961-2.7506-7.9338-4.8828-12.516-0.15463-1.8392-3.9726-10.385-6.4141-13.738-6.1119-8.8545-11.149-9.6187-14.502-13.289 0 0.007-1.2125-0.0894-1.2695-0.0488-3.5645 2.3926-3.5797 7.6009-6.6152 11.572-0.33375 0.43138-1.3525 0.96808-2.0117 0.64258-0.98475-0.48013-1.3997-1.3257-2.4902-2.8965-1.0255-1.4892-1.8147-0.40825-2.8809 0.8125-0.71612 0-1.2201 0.55374-1.7734 1.1152-0.98475 0.97662-0.19571 1.5062 0.54492 2.6211 0.77312 1.1475 0.009 1.1474 0.47265 1.7578-0.13837 0.464-0.29401 0.63407-0.41601 0.8457-0.3825 0.62662-1.3749 0.47205-2.1074 0.3418-2.0264-0.34175-1.5635-0.1864-3.3457-1.041-2.2381-1.0661-3.2949-3.9635-5.0039-4.875-0.54525-0.293-2.2715-0.61098-3.5898 0.25977-0.99287 0.66737-1.415 2.108-0.56054 2.873 1.4324 1.294 2.5377 2.8483 4.084 4.0039 2.0752 1.5625 4.3227 2.6936 4.6074 4.8828 0.36625 2.7832-3.743 3.7846-5.6719 2.3359-1.001-0.74863-2.1906-1.6191-3.2812-2.7422-0.18713-0.179-0.33299-1.0912-0.55274-1.2539-0.887-0.67549-1.9033-1.4648-2.3672-2.1484-0.86263-1.3102-2.0272-2.7008-3.5898-3.2949-0.34175-0.13025-0.68329-0.67574-0.93554-1.1152-0.71613-1.2776 0.0642-2.7428-0.46485-3.8984-0.4395-0.95212-0.62658-2.5072-2.002-1.8887-1.2208 1.2208-1.0744 1.222-2.4824 1.0918-1.7579-0.15463-0.3486-3.4431-0.32422-3.0117 0.008 0.18713-0.099-0.0725 0.51953-1.1387-1.237-0.39063-3.084-1.3844-1.668-3.1992 1.2045-1.53 2.3932 0.71587 2.8164-0.1875 0.179-0.34988 1.2204-2.2873 1.6191-2.5234 1.351-0.81375 1.7656 0.27763 1.9609 0.5625-0.61037 1.6846 1.1734 2.7924 2.8418 1.8809 0.179-0.0895 0.0881-1.3763 0.27539-1.6856 1.5625-2.7181 3.9712-4.1338 6.4453-6.0137 0.21163-0.171 0.92902-0.34959 0.99415-0.49609 0.71612-1.4811 1.5697-3.6142 0.0234-4.2734-1.3102-0.5615-3.9866-0.0566-3.4414-2.3516 0.25225-1.1069 1.6998-1.5068 2.4648-1.873 2.9135-1.3672 5.8921-2.7004 8.9277-3.8887 0.71612-0.293 1.9609-1.3835 2.8887-1.4648 3.768-0.30925 2.923-0.22075 7.5781 0.60937 0.81375 0.13838 2.3918 1.0022 3.1894 1.2871 2.474 0.87075 6.0068 0.57758 7.6426-2.0918 1.6114-2.6206 1.1548-7.0324-0.46484-10.125-1.9612-3.711-4.9386-6.9172-7.4941-9.4726-3.3041-3.296-7.5459-4.9735-8.4004-9.4902-1.0255-5.5096-5.3062-12.833-7.7559-17.203-2.5391-4.5169-4.7765-7.5275-8.0156-11.719-0.7405-0.95213-5.4774-5.7634-6.2832-6.5527-5.3956-5.2574-7.6737-6.9814-13.436-9.0566-2.938-1.058-14.388-0.36586-20.346-1.1309-1.8638-0.236-7.6253-0.38379-9.1797-3.4355-1.4161-2.7915-3.1903-6.7375-6.1445-8.6094-1.0661-0.6755-2.7343-1.3757-3.8574-1.9453-5.3469-2.7101-10.897-7.2363-16.725-6.9922-2.124 0.0814-0.0567 2.3772 0.48047 2.6621 2.5961 1.3754 3.8158 2.8974 5.248 4.582 1.4975 1.7579 4.7708 1.8229 7.5703 2.9785 2.6694 1.0986 4.873 2.8069 7.3633 4.1172 2.3601 1.237 5.4946 5.3144 2.8984 6.9746-2.3519 1.5138-4.8339-0.30829-7.959 0.46484-0.61037 0.1465-1.5227 0.57812-5.2012 0.57812-4.8015 0.65113-6.4534-1.6445-10.156-4.2812-3.703-2.6369-6.0223-6.7134-9.6113-9.2363-4.411-3.1008-8.8218-5.664-13.859-7.4219-1.0988-0.3825-2.5632 0.22658-3.5234-0.31055-1.766-0.97662-3.0682-3.0443-5.2168-3.207-2.3346-0.17297-3.2109-0.35459-4.4473-0.32422zm125.61 109.72c-0.21621 0.0231-0.44367 0.0748-0.67969 0.1582-0.358 0.13025-3.376 2.5789-3.4492 2.709-1.6846 3.1902-4.2646 3.5738-5.4121 5.7305-1.0092 1.8881-1.6211 2.344-2.1582 3.5566-0.24412 0.529-0.47078 1.1152 0.26172 1.5059 1.8066 0.94412 2.5705 0.64225 6.3223 1.1875 0 0 3.2652 0.51995 6.252-2.0762 0.45575-0.40701 2.9779-1.6764 2.8965-2.6856-0.0439-0.62619-0.0362-0.61412-0.0488-0.85742-0.0309 0.0495-0.14894-0.52314-0.48828-3.0801-0.19537-1.4811-0.14717-2.8329-0.71679-4.4199-0.25638-0.70493-1.2658-1.8904-2.7793-1.7285zm3.9844 9.2285c0.0422-0.0676-0.0465-0.89986 0 0zm-247.04 140.03c4.883 37.558-1.8308 69.624-39.088 103.21 69.013-12.826 99.239 3.353 148.4 28.395 3.9878 2.0265-0.61133-2.5977-0.61133-2.5977-1.5219-1.0661-5.1114-6.624-5.8438-7.918-1.6684-2.9868-2.9449-5.274-3.9297-7.6504-1.5219-3.6704-4.4921-6.2505-9.4238-11.02-2.4659-2.3764-6.2993-6.6155-7.8457-9.6836-2.4251-4.7934-3.8015-13.346-9.5879-17.383-4.4679-3.1089-3.368-6.6492-7.25-12.68-1.4892-2.3031-4.4926-2.5562-6.7226-4.8106-5.5829-5.6479-2.0422-7.8201-6.9414-12.996-2.1485-2.2705-3.0679-2.7274-4.9316-6.1699-2.4089-4.4354-0.57895-10.254-4.7051-12.305-3.6622-1.8149-6.4852-2.4648-9-3.2949-3.8169-1.2615-9.9705-4.4273-13.438-7.1211-3.6296-2.8321-11.092-9.0509-19.084-15.977zm115.12 25.033c0 4.2808 0.61697 7.3328-2.5976 11.605 2.1404 5.1922 3.9644 16.644 6.4141 19.395 5.3386 5.0376 9.6196 8.9992 13.119 21.068 0.77313 2.8972 3.2132 4.4283 3.3516 6.5606 0.21163 3.0681 1.2698 2.5154 2.9707 6.7637 0.83012 2.0834 3.2388 5.8173 4.4922 6.8672 7.064 5.9165 11.94 15.073 11.451 24.514 0.34187 4.6062 0.59489 4.296 5.1035 7.5352 0.765 0.54525 1.1871 0.58617 3.6367 2.873 0.9115 0.765 7.4791 7.7877 8.3906 8.5527-0.1465-2.7508 0.27707-7.4043 0.23632-8.8691-0.42312-14.405 2.3677-29.299-2.5234-41.881-3.6622-9.4405-11.914-20.045-15.137-29.9l-1.6191-5.3789c-1.709-7.6744-1.8633-15.658-1.8633-15.658l-10.205-4.875c-8.0242-3.2309-17.131-6.1689-25.221-9.1719z" transform="matrix(.8 0 0 -.8 0 792)" fill="#5b2b2f"/></g><g><path d="m503.12 499.44c4.2059 1.3803 6.2242-0.5859 10.879-3.7436 0.8008-0.5469 1.4453-1.9727 0.2995-2.7475-0.4037-0.2669-1.2892-0.2018-1.53 0.0326-4.0692 3.8933-5.3843 3.9129-9.8246 4.7072-0.2018 0.0325-0.892 1.3932 0.1758 1.7513"/><path d="m478.19 456.47c-0.6185-1.9011-1.2761-3.6069-2.0834-5.4299-0.8269-1.8946-0.4363-4.2319-1.7254-5.9442-0.5664-0.7552-2.1355-0.4622-2.3633 0.4232-0.8529 3.34-0.4362 6.8622 1.1589 9.9092 0.8398 1.5886 2.9688 2.3764 4.7658 1.7709-0.1823-0.3906 0.4101-0.586 0.2474-0.9766v0.2474"/><path d="m436.18 478.95c-1.3933 0.4493-2.129 1.7579-1.9597 3.1707 0.4688-0.1432 0.0781 0.5339 0.4883 0.5078 2.9233-0.2018 5.6512-1.3542 8.5485-1.4193 3.3399-0.0781 6.6864 0.5534 9.7269 1.9988 3.7566 1.7774 7.0184 3.698 10.638 6.1135 1.6211 1.0807 3.9454 1.7188 5.9572 2.168 3.1642 0.7097 2.9493 2.4871 5.3127 3.8804 3.4181 2.0183 3.1772 3.4897 5.1173 2.7344 0.5469-0.2213-0.5664-1.4388-1.1654-1.9857-1.263-1.1719-2.9884-2.3438-4.1798-4.4077-0.2474-0.4167-2.0639-2.3504-2.435-2.6238-3.9324-2.9298-4.8309-5.482-7.7672-9.0823-1.6537-2.0249-2.2071-4.6942-3.3139-7.0771-0.6576-1.3933-1.0742-2.8452-1.9271-4.1278-0.3646-0.5468-1.6863-0.2864-2.1485-0.7357-2.4415-2.3503-4.7658-4.5834-6.5693-7.6304-0.293-0.4948-1.3412-0.4623-1.4714-0.2149-1.5886 3.0145-3.7501 5.2802-7.4742 5.3843-0.6706 0.0196-1.3672 1.5105-1.3282 2.8452 0.007 0.2799-0.2995 0.8268-0.651 0.8984-0.5599 0.1042-0.8139 0.6446-1.4454 0.6771-0.6185 0.0326-1.1198 1.0092-1.25 1.4194-0.7423 2.3698-0.4623 5.0001-0.9571 7.5067h0.2539"/><path d="m117.51 547.22c-8.0602-11.485-13.92-29.565-16.856-42.508 3.6655 1.9532 3.9129 1.7123 7.3309 2.9298 1.224 6.107 10.847 41.466 9.5251 39.578zm47.4-398.18c4.9676-11.94 5.6121-23.445 1.2174-45.672-4.8894 4.6421-5.1303 8.7894-8.7958 10.99-0.4883-12.702-0.9766-16.615-3.4181-22.234-5.1304-10.013-6.6018-15.144-6.8427-24.91-8.5485 7.0836-10.749 16.85-16.609 22.468-4.1538 4.1603-12.461 11.973-15.391 17.103-0.4883-6.107 0-8.3076-2.4415-14.174-1.9597 6.7711-2.2006 8.7958-6.8361 14.415-6.1135 8.555-19.786 27.605-22.97 47.879-0.72919 3.418-2.6824 13.438-4.883 27.117-1.7123-4.6421-4.6421-8.3076-7.5719-9.0368-1.4649-0.7357-1.4649 1.224-1.4649 1.224 1.2175 4.3882 1.7058 9.2777 1.2175 12.943-0.72919 5.3713-2.1941 17.344-4.883 20.274h-1.2175c0.24089-8.0602-2.9363-11.726-4.8895-14.415-0.24741 6.3544 0 11.244-1.4649 14.415-0.72919 2.2006-2.4415 4.1538-2.9298 1.9532-1.224-6.3544-1.7123-7.5719-1.7123-13.438-0.4883-8.7894-0.4883-11.719-1.4714-19.05-0.48178-5.3778-2.1876-11.967-7.0771-18.568-0.9766 5.8596-4.6421 10.502-4.6421 10.502 0-7.0836 1.4649-17.585-2.9363-23.204-5.3713-7.3245-6.1005-10.99-7.8128-16.368-0.7357 6.3544-2.6889 4.4012-3.6655 7.8193-3.911-16.62-16.125-29.33-20.526-32.26 2.9363 6.8427 5.3778 14.662 5.8661 19.545 0 0-0.7292 18.08-3.4246 28.341-6.6864 31.96-9.9157 105.81-4.883 133.86 12.136 99.96 63.772 191.72 107.56 274.33h-5.4429v19.298h5.8595l7.9365 17.833 5.2606-4.0301 10.866 33.1 4.7592-24.304 20.769 16.244-16.856-38.354h5.7815c-0.918-2.0118-1.8556-4.0171-2.728-6.0614l-35.542-0.0456v-7.8388h32.39c-0.7357-1.9206-1.3998-3.8999-2.0834-5.8401h-11.582l9.4795-6.12c-0.6185-1.9011-1.2044-3.8152-1.7774-5.7358l-4.2254 2.7475c-1.7383-7.7998-7.3245-34.519-6.0809-50.256 14.903-14.408 25.899-28.334 24.187-59.605 0 0 0.9701-0.7292-5.3778 1.224 3.1772-3.4181 4.1538-6.107 6.8427-11.973 1.2175-9.5251 1.9467-18.074 1.2175-26.869 0 0 0.7292-21.746 1.4714-28.575 2.9298-0.9831 1.2175-8.7959 1.4584-19.057 0 0-0.2409-6.3544-1.2175-11.244-6.107 4.8895-5.6187 4.6421-7.3245 4.1603 1.4584-4.8895 2.4415-4.8895 5.3713-8.8024 0-29.064 0.9701-59.11 2.9298-72.301 0.9766-9.5251 2.6824-20.515 3.4246-23.94 1.4584-4.4011 1.4584-8.3075 5.8595-17.592-1.4714 0-5.56-0.1107-8.3075 3.4181 3.9064-7.3245 3.9064-5.8596 6.3478-8.3011l3.4246-25.404-3.9063-4.3947 5.3712-3.4181s-1.2175-11.485 0.2409-21.986c0.7422-4.8895 2.2006-9.7725 5.6252-16.615-7.0836-0.2409-8.3076 5.6186-8.3076 5.6186-1.9597 2.2006-5.3777 7.0836-6.3478 7.0836-0.4948-7.0836 3.4181-9.7659 5.1304-13.926"/></g><g stroke="#ffb612" fill="#ffb612"><path d="m158.85 143.57c-3.4181 7.8193-9.0433 18.568-5.1304 34.448 2.4415-5.6187 4.1538-5.3778 8.0601-6.3544 0.7292 5.8596-0.2474 14.167 0 15.144-1.4649 2.6889-4.8894 5.8596-4.8894 5.8596l3.672 7.0835c1.7057 7.0901-1.7123 12.709-1.3478 13.809-1.836 4.0301-3.099 7.4872-3.8542 10.15-0.6381 2.2331-4.6421-0.0261-6.0875 1.4063-1.2565 1.2435-2.78 2.3568-3.0079 4.323-1.0222-2.3047-0.2084-4.7332 0.8724-6.771 0.625-1.1784 2.0248-1.8035 2.9558-2.8322 1.0352-1.1328 1.4129-2.6758 1.9923-4.1017 0.7617-1.8425-1.0547-2.8972-2.2071-3.112-3.5678-0.6706-3.6655 4.4532-4.7918 6.9468-0.7943 1.7709-3.0861 2.4675-4.284 4.1147-0.2865 0.3972-0.8204 0.7878-1.0808 1.2501-1.0157 1.7904-3.073 3.0795-3.9585 4.9936-0.1758-0.8463 0.1302-1.6732 0.3581-2.4089 1.7058-5.3973 4.4403-10.157 6.8101-15.254 0.6511-1.4193 1.3933-2.7996 1.797-4.3491 0.3516-1.3087 0.1627-2.8842-0.599-3.7176-0.7683-0.8464-2.5587 0.9961-2.9103 0.3841-1.3086-2.2917 0.7227-5.0132 1.8751-7.2658 0.8073-1.5691 2.2852-3.1512 1.5886-4.9612-0.1367-0.3646-0.6185-0.8398-1.1198-0.9766-1.7188-0.4622-3.2619 0.6576-4.1668 1.6147-3.6004 3.7827-6.7385 7.5588-9.6032 12.103-1.0938 1.7253-0.4948 3.9845-1.7253 5.6903-0.6967 0.9766-2.0183 2.5586-3.2293 1.4779-0.4037-0.3646-0.8659-0.8659-0.9571-1.4128-0.3906-2.2202-0.8399-4.3101-2.1876-5.9703-0.3776-0.4557-1.1263-1.211-1.276-1.4909-1.8686-3.4051-2.2527-7.318-2.8647-11.302-0.1433-0.9571-0.3711-2.1485-1.3673-2.6498-0.8789-0.4493-1.4974 0.2669-2.0183 0.931 0.4428-1.4909 0.8725-2.9623 1.2957-4.4077 0.052-0.1693 0.0976-0.3516 0.1497-0.5274 0.3972-1.3672 0.7617-2.6758 1.0938-3.9129 0.0586-0.2213 0.1172-0.4231 0.1693-0.6315 0.319-1.2045 0.6055-2.3113 0.8268-3.2879 0.0326-0.1367 0.0521-0.2669 0.0781-0.4036 0.2214-0.9831 0.3972-1.8621 0.4688-2.5066-0.3451 0.6576-0.7096 1.4584-1.0873 2.3503-0.1302 0.306-0.2669 0.6641-0.3971 0.9831-0.2604 0.6381-0.5209 1.2956-0.7943 2.0053-0.1563 0.4297-0.3255 0.892-0.4883 1.3477-0.1758 0.4623-0.3451 0.9571-0.5143 1.4454-2.2137 5.6512-4.3036 11.498-6.1852 17.696-0.0781-0.1302-0.1692-0.2474-0.2278-0.3386-0.9831-1.6927-2.5848-2.4805-4.3361-3.1576-0.9571-0.3581-2.0509 0.345-2.2592 1.1784-1.1784 4.7463-4.4598 8.1253-5.7684 12.67-2.0248-0.0195-4.004-0.4753-5.3387 1.4909-2.9298 4.3166-2.3308 9.1475-2.7214 13.9-0.65106-0.5729-1.4454-0.9635-1.9272-1.7318-4.6291-7.4612-6.413-15.228-8.3857-23.66-0.40366-1.6993-0.63804-2.3308-1.1719-3.9194-1.1003-3.3009 0.612-3.7892 2.3178-1.5886 3.0014 3.8543 2.3894 0.6706 2.6954-0.2474 0.72919-5.6187 3.659-11.237 4.883-20.762 0.9766-9.2841 2.9298-18.568 3.9064-23.204 2.5912-15.254 12.702-30.782 18.809-34.643-0.7292 6.3544 1.4649 8.7438 0.9766 13.633l1.224 0.2409c0.2409-8.5485 6.5888-19.538 13.92-25.645 5.866-6.8427 9.0432-8.3076 13.978-15.398 1.4584-2.4415 2.6368-3.5548 3.8608-5.5145 2.6824 5.5145 7.5719 15.287 7.5719 26.043 0 8.2359-0.2409 17.585-2.4415 24.916 4.3947-1.9597 9.2777-9.0433 12.943-15.15 2.2006 4.6486 0.9766 17.592-2.4414 23.94"/><path d="m6.12 265.93c0.2474-2.1941 0.20834-0.8399 1.2761-2.6759 0.9766-1.6667 0.43621-3.8608 1.1654-5.7554 0.65106 0.8203 1.849 1.1979 1.9597 2.448 0.918-3.8022-1.8425-7.4221-0.4883-11.237 1.4844 1.3477 3.7046 1.6407 4.883 3.4181-0.11719-1.5105-0.52736-2.9623-0.74221-4.4272-0.37111-2.5587 0.65106-5.1109 0.94404-7.7672 0.37111-3.353 4.5379-5.8856 3.3465-9.1735-1.9206-5.3517-2.9623-11.055-1.211-16.12 0.3646-1.0548 0.89847-2.8322 2.129-3.4051 0.95055-0.4362 2.3438-0.4492 3.2748 0.006 0.48179 0.2409 0.91149 1.0612 1.0222 1.8035 0.3646 2.3633-0.68362 4.5509-0.26693 6.8036 0.54038 2.9298 1.0482 5.8726 2.9102 8.2099 0.37762 0.4688 1.8034 0.319 2.1355-0.4167 1.224-2.7345 0.7357-6.0484 2.3503-8.568 0.5534-0.8594 2.4936-1.4649 3.5158-0.5143 2.2787 2.1224 1.4454 5.4559 1.7383 8.2034 0.48178 4.5835-1.6667 7.0445-2.2657 11.713-0.55991 4.3752 0.24741 5.0197 1.6407 6.8166 1.4584-4.0951 1.4649-8.5484 4.4338-12.188 0.61851-0.7617 1.7904-0.7878 2.2787-0.3711 2.1485 1.8425 1.7058 5.8596 0.14975 8.4639-2.3829 3.9584-4.31 10.241-0.02605 13.861-0.26042-1.9857-0.23438-4.271 0.78779-5.7554 1.4128-2.0574 4.0431-6.2893 4.4207-10.332 0.13672-1.4649 2.2071-2.0313 3.4767-0.8854 0.23438 0.2148-0.04558 1.1654 0.60549 1.25 2.0639 0.28 3.0209-2.1485 2.9233-3.8152 0.82034 0 1.9011-0.2735 2.2983 0.1367 1.9792 2.0313 1.4909 6.8492 1.6146 9.6357 0.24089 5.1304 1.4649 3.1772 2.3178 3.659 0 0 0.3646-2.4415-0.1237-9.525 0.72919-8.7894-0.24089-20.274-2.6889-22.963-2.1941 2.2006-2.4415 4.1538-5.3713 4.8895-7.8128-3.672-7.3245-37.13-6.8427-42.26-0.11719-1.224-1.9532 0-1.9532 0-4.4012 4.3947-6.3479 9.7724-7.5719 12.702 0 0-1.7123 1.9532-1.7123 0-2.1941-7.0835-1.4649-26.388-0.4883-31.03 0.98311-5.6121 0.24089-8.7893-2.4415-14.167-0.4883-1.4584-1.4649-1.7058-1.4649 0.2409-0.2409 2.2006-1.7123 3.1837-2.4415 5.3843 0 0-1.7123 3.1707-2.2006 0-1.4649-8.3076-6.107-18.328-7.8128-21.498l-1.224-0.7291c0.48829 7.8127-1.9532 20.027-3.659 29.063-3.9129 23.451-7.8258 45.438-7.8258 77.438 0 14.414 0.78779 29.929 0.78779 29.929l0.435-0.49"/></g><g fill="#fff"><path d="m489.12 195.7c-1.8231-0.0728-3.7126 0.44954-5.5488 0.73438-0.5615 0.0895-1.4081 0.85577-2.043 1.3848-1.0986 0.94412-2.8902-0.76572-4.3633-0.27735-1.2614 0.42313-2.6695 1.9039-1.457 3.1328 1.3021 1.3184 3.0602 2.2064 4.8262 2.6621 5.2736 1.3266 10.776 0.0316 15.748 2.2207 1.4161 0.61862 3.1664 1.3433 3.7441 3.1582-0.5045 0.122-1.0247 0.57745-1.4805 0.25195-1.2045-0.87075-2.5484-0.86136-3.7285-0.95898-8.358-0.6755-16.692-1.3669-25.018-0.20313-0.0163 2.1241 0.85433 4.3685 2.7832 4.6289 2.5716 0.35 5.3809-0.45452 7.8711-0.27539 2.7264 0.21162 5.5983 1.9614 8.3164 3.5078 0.39875 0.22788 1.0255 0.19469 1.4648 0.0156 1.2126-0.52088 2.2782-2.2796 3.6211-1.6367 0.83 0.3825 1.7009 0.74967 2.5879 0.90429 1.9044 0.33377 3.2808-0.0167 5.0957 0.25196 3.8494 0.57775 7.1213 3.1573 10.971 2.5957 2.8485-0.42312 4.1582 0.53816 5.5742 1.832-0.80562-0.73237 5.2572 3.6049 5.8106 2.5469 0.21163-0.42325 6.348-0.76517 6.4375-1.7012l-9.08-5.19c-0.52087-0.89525-1.2284-1.9696-2.1074-2.7754-2.0264-1.8636-3.1014-4.0774-5.4453-5.5586-3.1251-1.9857-5.7057-4.5732-9.1074-5.8184-0.35812-0.13025-0.79643 0.0156-1.1953-0.082-0.24412-0.057-0.39809-0.27731-0.30859-0.57031-0.30925 0-0.7246 0.098-0.8711-0.0566-0.472-0.529-1.1969-0.83037-1.6445-0.96875-1.7579-0.57787-3.7933 0.46491-5.3476-0.90234-0.9115-0.80575-1.9433-1.2617-2.9199-1.8965-1.0193-0.65311-2.0898-0.91139-3.1836-0.95508zm35.455 2.3574c-0.35668-0.021-0.70293-0.0174-1.0371 0.0137-1.6846 0.15462-2.3684 1.9606-1.4082 2.8965 1.8311 1.7986 5.094 2.4013 5.3789 5.3066 7.1535 3.5728 19.695 5.9568 19.109 13.77-0.0488 0.75685 4.5901-1.6025 5.8027-1.4316-2.4415-1.5706-2.7258-4.6138-4.0605-6.8926-1.0173-1.7416-2.3448-3.1331-3.9316-3.9551-6.737-3.4867-14.503-9.3917-19.854-9.707zm-60.66 12.418c-0.89305-0.0206-1.9521 0.63987-3.002 0.80468-1.9044 0.30113-3.8811-0.10611-5.7773-0.72461-3.2879 3.768-12.028 1.2781-16.154 1.5547-0.51263 0.0326 2.5869 1.7972 3.1484 2.2773 2.9054 2.4659 7.6594 2.247 11.191 2.3692 0.56963 0.0162 1.7324-0.58527 2.1719-0.65039 3.8006-0.51265 7.577 0.77265 11.557 1.4726 1.2615 0.22788 5.1843-1.0912 3.9473-2.4258-0.94412-1.0091-4.2245-0.48747-4.8105-1.8711-0.39875-0.93588-0.86971-2.0599-1.4395-2.5156-0.25431-0.20144-0.53434-0.28414-0.83203-0.29101zm-78.312 2.1738c-1.4624 0.0263-3.1721 0.36039-5.1191 1.1035 0 0-6.1052-0.60998-20.453 10.385-15.878 9.7741-36.947 23.821-52.215 42.449-11.15 11.141-26.873 28.086-32.676 40 0 0-9.4643 14.96-15.576 39.391 0 0 2.1401 7.935 8.252-2.4414 10.669-18.156 51.289-79.243 109.31-123.82l2.75-0.15625c-28.72 24.716-65.952 58.02-102.13 114.66-1.351 2.1079-3.1009 5.8496-3.2637 6.1426-0.9851 1.8365 0.15885 2.7221 0.73828 3.0254 3.0553 0.44383 4.2769-3.8602 6.3164-4.7344 1.3102-0.5615 1.8478 3.3529 3.9395 2.3438 7.3814-3.5728 12.884-11.205 15.936-15.787 0.1465 1.3102 1.8223 5.1914 1.8223 5.1914 3.3611 0.91963 13.747-13.435 19.248-23.201 1.5219 1.823-0.38424 6.3075 1.6504 4.3867 6.2746-5.9246 11.866-12.281 15.211-18.084 3.8901-6.7629 8.1716-9.814 9.6934-21.729 2.4496 1.53 2.3933 2.1966 3.0606 2.75 1.53-1.8311 1.6269-3.7515 4.0684-6.4941 2.6449-2.9705 3.1822-5.2899 6.3887-7.4141 1.1475-0.74875 3.6787-5.5171 4.1914-8.0156 0.48012-2.3682 5.7451-10.043 6.1113-12.582 4.2726-7.943 11.605-12.217 16.789-18.32 3.974-3.4714 2.3017-9.1609-4.0352-9.0469zm-110.4 130.74c-0.10223-0.0148-0.2002-0.0191-0.30664-0.0449 0.82248 0.20081 0.67979 0.24027 0.30664 0.0449zm-108.93-110.85-5.6484 20.15 9.6113 8.2441-3.9629-28.395zm218.24 1.2227c-0.46487-0.0728-0.99219 0.45508-0.99219 0.45508s-7.9354 1.839-19.842 35.426c-17.408 55.878-32.374 115.42-48.553 163.66 4.883-25.343 30.837-114.81 38.479-147.17 0 0-1.0735-2.2953-2.75 0.30078-1.9856 2.2869-3.9729 5.192-5.0391 7.1777 0.14651-0.13827-0.91792 0.15525-2.1387 0.76562l-3.8184 5.8027s-7.633 10.685-28.557 32.365c-3.4994 5.4934-5.0207 8.0238-8.8457 16.797-1.3754 3.1984 0.75578 3.6635 3.0508 1.8242 5.648-5.4934 5.9582-5.4939 13.738-11.451 0.35-0.26037 6.625-2.5235 6.625-2.6211-0.97662 1.2532-2.288 2.084-2.8008 2.5723-2.1404 2.0346-7.4303 8.0009-8.8789 10.516-3.5482 6.1362-7.4309 13.761-12.525 22.998-6.3886 11.581-11.271 25.018-11.271 25.018-3.3611 9.4648-2.4492 10.375-2.4492 10.375 4.59 1.8392 2.084 4.1524 2.084 4.1524-2.0834 3.7925-2.9943 6.8441 0.52148 5.4688 2.2869-0.45575 3.5069-1.6448 4.459-2.8086 1.7905-2.2299 3.3278-3.7588 4.5566-5.2969 2.059-2.5472 1.6779-3.3206 3.8672-5.8516 2.8402-3.2961 4.6711-6.0387 7.5684-7.4141-5.0376 6.8686-5.3398 11.75-5.3398 11.75l1.2207 1.5312 0.91992 0.60938s-5.191 6.4142-7.6406 20.949c-1.1556 6.8931-0.91208 7.7554-1.9863 11.572 0.52087-0.49637 3.5149-0.00031 6.2168-2.7266-1.18 4.2481-1.4082 6.3965-1.4082 6.3965-0.529 3.5076-0.52734 2.8895-0.52734 6.8691 0 3.6704-0.00005 2.1317 1.2207 6.4043 5.4934-2.4415 6.7128-2.1309 11.889-8.2266 2.4659-2.3031 4.3304-7.8867 5.0547-7.4961 1.3754 0.61039 0.21944 3.72-0.38281 5.1035-0.83012 1.9125-1.579 3.3431-1.8965 4.7266-0.16275 0.69988-0.86141 1.7429 0.26171 2.7031 0.48825 0.41512 0.13805 0.36528 1.7168 0.3164 0.9115-0.0244 1.7656-1.4394 1.7656-1.4394s0.5205-0.11356 0.98437-1.1797c0.3825-0.89525 1.0654-1.376 1.6758-1.8398 0 0 0.91208-0.91081 1.9863-0.60156 2.1404 2.4415 3.9629-0.77344 3.9629-0.77344 3.5158-5.3388 4.2812-6.7149 6.7227-13.885 1.53-4.7364 3.3609-6.4123 4.8828-26.262 4.2726 6.413 4.8926 18.629 4.8926 18.629l1.2207-0.31055s3.9633-11.295 10.686-14.957c0 0 0.61009-7.6421 7.3242-15.268-0.9115-4.5819-1.5299-8.2436-2.4414-15.576-2.7508-12.216-4.2742-32.676-1.5234-46.715 5.4934 29.306 8.7012 33.586 8.7012 33.586l1.2207 0.45703c2.295-3.5076 2.9056-9.6199 3.5078-15.113 2.7508-11.605 7.6328-10.385 7.6328-12.826-1.5219-9.4649-3.9717-24.422-2.4336-37.256 3.0519 14.047 4.5745 13.134 6.7148 18.318 2.7508 6.421 3.0508-1.5215 3.0508-1.5215-0.61037-8.2441 5.1926-16.488-0.30078-35.727-2.1404-13.127-8.2524-41.222-5.8027-47.635 0.85598-4.4679 0.36136-5.5528-0.23633-5.6465zm-199.46 2.4394-9.4648 8.2441 1.5215 7.1797 7.9434-15.424zm-34.205 17.555-4.2715 10.539h16.488l-12.217-10.539zm10.889 35.117 11.85 7.6504 2.6289-7.6504h-14.479zm-17.611 0.30859c-7.6256 10.376-60.15 109.31-65.342 127.33-40.301 80.87-66.254 161.48-71.219 241.1 0.30926 2.7262 0.33329 1.0253 1.668 3.3203 1.2207 2.0834 0.54554 4.8271 1.457 7.1953 0.81383-1.0254 2.3128-1.4979 2.4512-3.0605 1.1475 4.7528-2.3041 9.2778-0.61133 14.047 1.8555-1.6846 4.6305-2.0517 6.1035-4.2734-0.14649 1.8881-0.65917 3.704-0.92773 5.5352-0.46389 3.1984 0.81346 6.3886 1.1797 9.709 0.46389 4.1912 5.6729 7.3569 4.1836 11.467-2.4008 6.6896-3.7029 13.819-1.5137 20.15 0.45575 1.3185 1.124 3.5397 2.6621 4.2559 1.1882 0.54525 2.928 0.56195 4.0918-0.008 0.60224-0.30113 1.1409-1.326 1.2793-2.2539 0.45575-2.9541-0.85485-5.69-0.33398-8.5059 0.67548-3.6622 1.3092-7.3401 3.6367-10.262 0.47202-0.586 2.2549-0.39814 2.6699 0.52149 1.53 3.4181 0.9192 7.5595 2.9375 10.709 0.69175 1.0742 3.1168 1.8308 4.3945 0.64258 2.8484-2.653 1.8076-6.8195 2.1738-10.254 0.60222-5.7294-2.0833-8.8055-2.832-14.641-0.69989-5.469 0.30919-6.2734 2.0508-8.5195 1.823 5.1189 1.8319 10.685 5.543 15.234 0.77314 0.95213 2.2373 0.98377 2.8477 0.46289 2.6856-2.3031 2.1326-7.3247 0.1875-10.58-2.9786-4.948-5.3882-12.801-0.0332-17.326-0.32552 2.4821-0.29334 5.3398 0.98438 7.1953 1.766 2.5718 5.0553 7.8621 5.5273 12.916 0.1709 1.8311 2.7587 2.5378 4.3457 1.1055 0.29298-0.2685-0.05798-1.4568 0.75586-1.5625 2.5798-0.35 3.7764 2.6862 3.6543 4.7695 1.0254 0 2.3766 0.34088 2.873-0.17187 2.474-2.5391 1.8629-8.5598 2.0176-12.043 0.30111-6.413 1.6761-3.9076 2.7422-4.5098-0.56154-13.119-2.4739-25.311-3.6621-33.652-1.2858-3.3611 0.000906-3.9717 1.832-4.582 0.42319-0.34188 7.332-8.8534 7.332-13.443-5.8026 3.9715-7.3328 4.8905-12.826 8.5527-0.61038-13.127-6.4132-33.887-12.826-50.074 6.7141 6.1119 10.989 13.135 13.129 18.93 2.4496-13.436 3.361-21.372 3.6621-27.785-3.353-11.914-9.7666-37.866-9.1562-57.105 3.9634 14.055 7.634 29.321 11.605 38.484 1.823-6.7222 3.3531-18.628 5.8027-28.711 3.353-2.4415 7.3242-4.8831 8.5449-7.0234-1.2207-2.1404-6.4124 1.8395-7.332 2.1406 0.61038-9.4649 2.1396-27.784-4.2734-57.709l0.91992-0.91992c2.7507 1.2208 6.1035 6.7146 7.3242 12.525 5.5015-6.4129 9.1634-38.177 10.693-50.693-5.8026 0-8.5539 6.4131-12.525 5.8027 0.61038-3.9715 0.92117-2.1405 2.4512-5.8027 1.5219-4.2726 5.1829-8.5532 6.7129-14.348 3.3611-4.8911 3.361-10.686 3.6621-16.188 0-5.1841-0.6105-12.827 3.6621-19.541 0.91149 2.7426 0.30103 4.5743 2.4414 10.377 0 0 8.5552-18.62 13.129-22.893 6.1119-26.572 20.768-56.497 34.506-76.037h-6.4141zm10.996 4.2734c-23.821 98.937-34.809 157.57-37.25 230.85-2.6938 75.45 4.3626 149.85 22.381 219.63 0.78125 2.588 1.6114 5.3385 2.4414 8.1055 0.65112 0.83013 1.4248 1.7257 2.5234 1.1641 1.2452-0.62662 1.5298-2.1161 1.709-3.3125 0.765-4.9806 1.2443-9.8706 3.5801-14.127 0.18712-0.34987 1.1237-1.2936 1.5957-1.8633 1.6846-2.0752 2.2461-4.6876 2.7344-7.4629 0.114-0.68362 0.69068-1.3118 1.1953-1.7676 1.5138-1.3509 3.1662 0.62691 4.0371 1.8477 1.5381 2.1322 0.789 4.9566 2.1562 7.1133 3.5809 5.6806 7.5034 10.401 12.004 15.129 1.1311 1.1964 3.0605 2.5973 5.209 2.0195 0.62662-0.171 1.2295-0.76496 1.4004-1.2207 0.87075-2.2625-0.9772-4.2418-1.9863-6.2031-1.4405-2.8158-3.9795-6.2174-2.3438-9.082 0.4395-0.765 2.6783 1.5385 3.6387 0.48047 0.95213-1.0418 1.1876-3.0106 0.74805-4.6465-0.50462-1.9369-1.4322-3.6634-2.2461-5.4375-2.9622-6.3722-6.3814-12.32-8.5137-19.066-0.28487-0.91963-0.66701-1.9538-0.44726-3.0117 1.1069 2.3926 3.6796 4.0042 4.9492 6.2422 0.3255 0.57788 0.99148 1.066 1.3496 1.5625 1.4974 2.059 4.3626 2.929 5.3555 5.1426 1.4079 3.117 1.5305 9.5218 5.9902 8.6836 1.4405-0.2685 3.7099-1.5856 2.7578-3.8887-0.72425-1.7824-1.1962-3.711-2.4902-5.127-1.1638-1.2859-2.9121-2.068-3.6934-3.541-1.351-2.5472-2.3696-5.584-1.0918-8.4648 0.28488 2.4578 2.1891 3.8499 3.7598 5.4043 1.6684 1.644 6.0403-0.57753 7.3262 1.2617-0.19538-1.0499-0.47195-2.0837-1.2207-2.9707-11.296-13.428-21.983-27.483-21.373-38.16 7.6338 10.987 14.049 17.702 20.152 21.982l0.3086-2.1406c-4.2726-27.483-4.2734-39.699-6.5684-65.799-6.8688-5.5015-21.827-21.99-19.084-36.037 5.0375 9.7741 10.995 17.254 16.488 20.615l2.2871 1.6758c-0.44762-4.7284 0.16211-32.666 0.16211-41.064-3.6704-5.1922-8.2528-11.296-11.451-17.408-2.9054-6.1119-6.4196-12.061-14.818-22.137-7.0152-10.531-18.01-19.85-18.01-19.85s2.1308 0.30078 3.2051 0.30078c3.3611 1.0742 7.3243 2.4504 13.127 6.5684 2.2869 0.91962 5.3403 5.1925 10.842 10.238 3.6621 3.5076 3.9713 6.1041 5.957 7.1621 3.2065 3.06 7.4793 6.7294 11.752 9.7812h1.2207c0.91963 3.6621 0.46289-22.746 0.46289-22.746-4.7365-7.4872-8.089-16.497-12.061-26.727-0.6185-3.6622 2.132 2.2945 7.3242 4.8906 1.5219-5.3469-1.22-32.365-1.5293-51.002-1.5219-5.7945-23.049-35.718-24.115-43.197 7.3245 11.906 17.092 13.428 20.754 18.164 0.92775 0.765 1.0745 1.0651 2.1406 0.60938-0.60225-30.844-14.348-45.802-27.174-56.797-1.8311-28.394 7.6328-69.004 7.6328-69.004l-5.1914-3.3613zm-20.762 69.924s-3.971 1.5299-6.1113 2.4414c-4.2727 2.1404-6.104 4.2814-10.678 10.084-1.8392 3.9715-4.2809 5.7948-5.8027 10.385-5.5015 10.987-6.4133 19.54-9.1641 27.475l1.8242-0.30078c5.8108-7.943 15.276-14.967 17.416-17.107l3.0508-1.5215c-4.2726 10.995-10.074 13.737-15.877 23.812-7.9918 16.61-15.586 78.234-19.24 95.268l3.6621-1.2129c2.4496-1.2289 6.4136-5.5029 18.328-9.7754 6.1037-4.883-20.158 22.592-23.52 31.602-3.353 23.975-8.235 63.065-9 80.619l1.375-0.15625c1.823-1.2208 16.333-18.774 21.98-20.768l1.9863-1.832c-3.06 4.5819-13.282 24.431-15.113 30.844-2.1241 6.3641-4.8905 12.826-7.332 18.629-0.91149 1.8311-1.8311 3.2073-1.2207 5.4941 0 12.525 1.2203 24.431 2.4492 30.535l1.5215 2.1309c1.2208-3.353 7.3257-9.4641 10.996-11.287l0.30078 1.8223c-3.353 7.943-7.6344 15.268-9.1562 19.248 0 15.268 1.8225 33.895 5.1836 48.854 0.3174 2.1974 3.0524 1.8236 4.2812 0.91211l0.75781-0.66016c2.4659-10.539 4.6961-20.248 10.482-29.574 0.60224-0.96037 1.5944-1.4479 2.4082-2.1641 0.4883 5.9409-0.2599 11.979 3.4023 17.375 1.6684 2.4578 4.1409 1.8876 6.6719 1.8633 1.6358 5.6805 5.7379 9.905 7.2109 15.838 0.26038 1.0418 1.6278 1.9203 2.8242 1.4727 2.1891-0.84638 4.191-1.8314 5.4199-3.9473 0.0733-0.114 0.18753-0.26108 0.28516-0.42383-19.906-65.635-24.871-154.37-21.754-229.7 3.6622-55.601 7.9511-96.26 20.15-146.27zm326.37 97.287c-3.5421-0.0691-5.3958 0.9556-7.9961 1.627-12.118 3.1089-24.017 12.231-30.617 20.996-1.9288 2.5554-1.3014 5.2414-0.89453 5.7949 1.2208 1.6765 3.1416 6.2738 3.6543 5.7285 4.9155-5.3225 10.864-10.205 17.285-8.6836-2.7508 0.91962-12.37 5.8032-15.422 12.867-0.18713 0.44763 1.2115 3.0114 3.0508 4.3867 2.4415 4.1261 3.3531 5.8014 4.7285 6.5664 0.879-0.0733 2.6618-1.862 3.1582-2.627 6.7711-8.9765 13.485-14.471 32.113-16.912 5.3388-0.91963 8.3916-2.4409 8.8555-7.332 0 0 1.0662-2.4432-1.0742-7.3262l-0.0332 0.32617c-0.78126-3.0519-5.7287-2.7823-9.2363-2.416-5.3876 0.5615-10.263 1.4797-15.463 4.2305 3.4425-5.1759 7.6406-5.5006 15.641-8.5606 1.8311-0.69987 1.3929-3.9154 0.21289-5.7871-1.351-2.1485-3.0841-2.2624-3.7676-2.3926-1.646-0.31943-3.0146-0.4633-4.1953-0.48632zm-5.4414 43.781v0.002c0.30112 4.59-0.36658 6.6563 0.93554 9.6348 1.237 2.8321 3.8336 5.2899 4.8184 8.1953 0.765 2.2299 3.4024 5.0777 3.4023 6.5996 1.2208 1.2289 1.3902 2.3044 1.3984 2.3125 1.6114 2.116 6.405 4.6877 4.7285 5.9492-2.002 1.5056-7.9583 0.43952-11.539-0.14648-4.6064-0.765-1.9366 3.4265-0.93555 3.8496 4.6714 1.9288 14.494 2.5872 17.709 4.3613 1.945 1.0742 4.484 2.7027 5.3223 4.6152 0.6185 1.4322 1.7243 2.6764 2.6602 3.9297 3.1007 4.1424 4.1919 5.9576 7.3984 8.5781 1.5951 1.3102 3.4667 3.5487 2.8809 5.5508-0.6755 2.3438-2.1402 2.8405-4.3945 2.5312-0.72425-0.0978-2.9378-0.76624-5.0781-1.6777-4.2726-1.3754-5.1929-2.9458-8.2285-1.375-1.6846 0.86263 0.74122 3.6787 2.6211 4.6797 7.6826 4.0936 16.911 4.1747 24.342 8.4961 6.3885 3.7111 10.278 8.2034 9.9121 17.709 0 0.17087 2.2871 1.4499 2.4336 1.2383 2.2055-3.4181 7.7061 0.82957 10.367-0.01 0.24425-0.0732 0.34174-1.5133-0.0488-2.1074-1.2696-1.9206-4.0024-2.0194-5.1582-3.875-1.237-1.9612 0.55207-4.0937-0.0664-5.8027-0.63487-1.7498-3.5966 1.2787-4.6953 0.12304-4.8992-5.0864-8.1059-11.109-14.682-14.039 2.7508-7.6419 3.9717-16.187 3.3613-20.158-1.8392-1.5219-2.597 0.91926-3.0527 1.2285-1.5219 1.4242-0.91954 4.5739-2.6855 6.9746-0.28488 0.39888-2.6445-0.0899-3.3281-0.67578-4.5005-3.8414-8.6839-8.3739-10.775-13.818-0.0814-0.21162-0.99244-1.3268-1.1797-1.6035-3.3122-4.6144-3.1007-11.075 0.73243-15.73 0.415-0.49638 1.0182-3.3541 0.61132-3.6797-0.64287-0.52087-2.1979 0.57033-2.8164 1.2051-2.0915 2.1322-3.8579 6.388-7.4062 6.0137-3.9796-0.41512-5.5094-4.4348-7.959-7.0879-0.765-2.5961-2.2223-4.265-1.8398-4.5742-3.353-4.8911-3.6617-8.8615-6.7461-14.957-0.69988-1.3754-1.6768-2.0521-3.0195-2.459z" transform="matrix(.8 0 0 -.8 0 792)" fill="#fff"/></g><path d="m26.057 619.23c-3.3167 0.0654-2.3968 4.2708-2.2188 7.3613l-0.31055-0.30859c-1.587 1.6765-2.3997 2.7339-3.4414 4.6953-1.3103 2.4659 0.46316 5.16 1.9199 6.9668 2.4089 3.003 6.5914 1.2862 8.6504-1.7168 0.79756-1.1638 2.1091-2.5147 1.3359-4.1016-1.3591-2.7915-2.0924-5.3716-2.1738-8.5781-0.03255-1.1719-0.40619-3.6305-2.0664-4.0781-0.66124-0.17497-1.2215-0.24958-1.6953-0.24023zm20.787 19.004c-0.72968-0.1615-1.7083 1.1533-1.7012 1.7871 0.03255 2.002 1.3428 4.0268 1.3184 6.1836-0.02441 3.2796-1.5544 4.2-0.58594 8.4727 0.21159 0.879 1.6039 0.33339 0.86328 1.2285 1.8311 0 3.7363 0.34118 5.4453-0.17969 0.84639-0.25225 1.4473-1.586 1.5938-2.3184 0.50458-2.5799 1.7498-5.8023-0.53711-7.6172-2.0346-1.6114-1.6757-4.2071-3.0918-5.4766-0.65106-0.57788-2.0595-0.96194-3.0117-1.9141-0.09054-0.0895-0.18873-0.14295-0.29297-0.16602zm-26.781 5.8887c-0.70876-0.0703-1.5651 0.63922-2.1348 1.5293-2.1648 3.3449-3.2536 6.5835-3.5547 11.475 0.60222 2.7508 4.5481 3.2553 6.4688 2.0508 4.3703-2.7426 1.2288-13.257 1.0254-11.809 0.13835-0.93588-0.78125-2.3519-0.78125-2.1484-0.22584-0.73247-0.59818-1.0554-1.0234-1.0977zm13.197 8.0625c-0.76683-0.0504-1.5964 0.16028-2.3594 0.71875-3.2472 2.3764-4.5489 6.0623-1.7656 10.066 1.5137 2.1729 1.3505 6.0793 3.7188 7.2676 3.3123 1.6601 8.0092-1.9621 6.8535-5.6895-1.1231-3.654-2.5472-6.7134-3.7109-10.359-0.35096-1.1139-1.4583-1.92-2.7363-2.0039zm110.31 3.0938c-0.5698 0.0275-1.1402 0.11897-1.6875 0.26953-0.7325 0.19525-1.7568 0.0569-2.0254 0.58594-0.98475 1.8719 0.8538 3.2714 1.5293 5.1758 0.39875 1.1475 0.79036 1.4242 1.4902 2.2949 0.78938 0.9685 0.73205 3.9635 1.3262 5.0215 0.4395 0.78125 1.0326 2.8409 1.9766 3.2559 2.5472 1.1231 3.2712 0.21905 4.9883-0.81445 1.473-0.89525 2.2544-3.0023 1.5625-4.8984-0.651-1.7335-0.86127-3.5735-1.8379-5.1524-0.95213-1.5055-1.7089-2.9537-2.832-4.1582-1.0742-1.172-2.7808-1.6625-4.4902-1.5801zm-84.844 10.17c-0.53884 0.00082-1.0494 0.13644-1.4492 0.43555-1.1556 0.86263-1.1312 2.6687-0.09766 4.0195 1.6114 2.116 1.1308 4.6136 2.3027 6.8027 0.74058 1.3672 2.2135 1.4092 3.2715 2.2148 1.3672 1.0174 3.3043-0.0403 3.8008-1.1797 1.766-3.9878-0.22743-7.4954-3.5234-10.1-0.30925-0.24412-1.4329-0.96814-1.7422-1.2285-0.68667-0.59516-1.6644-0.9662-2.5625-0.96485zm78.533 5.4238c-0.37438-0.0244-1.447 0.0807-1.4062 0.74805 0.24412 3.7029-4.0462 5.4374-5.332 8.3672-1.3346 3.0112 1.3606 5.8668 3.5742 7.9258 1.766 1.6358 4.5817 0.51245 6.7383-0.13867 3.5482-1.0742 3.9877-6.0614 3.1738-9.3574-0.63475-2.5636-2.2466-4.8268-4.2812-6.8125-0.708-0.70001-1.7018-0.68355-2.4668-0.73243zm-31.998 4.2969c-0.7973-0.0435-1.6333 0.54322-1.7188 1.3672-0.30925 3.1414-0.37452 9.0733 4.3945 8.1211 1.6846-0.33363 2.8089-2.0752 2.4102-3.8574-0.56154-2.5148-2.4501-3.9473-4.3301-5.3633-0.22788-0.16888-0.49009-0.25308-0.75586-0.26758zm-73.73 2.1953c-0.92273-0.0585-1.0958 0.89345-1.6797 1.3848-1.3591 1.18-1.3681 3.6634-2.5645 5.291-2.2299 3.0112-1.5703 7.2593-0.69141 10.148 0.59409 1.9695 3.5481 4.8347 6.0547 4.623 3.9389-0.33363 6.8845-7.6988 3.8652-9.4648-3.9389-2.3032-2.5537-8.1966-3.9941-11.387-0.1058-0.22787-1.0498-0.0723-1.6602-0.0723l1.1133-0.43164c-0.16582-0.0539-0.31154-0.0834-0.44336-0.0918zm128.34 5.5606c0.26603-0.006 0.52602 0.01 0.78125 0.043 0.14855-0.0154 0.29889-0.0323 0.43945-0.043h-1.2207zm0.78125 0.043c-0.75453 0.0781-1.5533 0.23287-1.832 0.68164-1.709 2.6694 0.14734 5.7787 2.418 6.918 2.3926 1.2045 5.3793-2.8092 3.6133-5.0391-0.97971-1.2353-2.4556-2.3325-4.1992-2.5605zm-45.371 2.7832c-0.765-0.0224-1.493 0.18052-1.9121 0.50195-1.7579 1.3591-2.4017 4.2086-1.7832 6.3652 0.67548 2.3358 1.4811 4.8668 3.2227 6.6816 1.115 1.1556 3.4346 2.5065 4.0449 1.6602 1.4405-2.002 2.7839-4.738 2.1328-7.627-0.58597-2.5799-1.7574-4.875-3.5723-6.7305-0.56561-0.58194-1.3678-0.82919-2.1328-0.85156zm26.848 17.943c-1.4938-0.0437-3.0311 0.66017-3.5723 2.1484-0.68363 1.8962 0.69975 4.72 1.5625 5.1758-0.19538 0 0.41443 0.91015 0.21093 0.91015 1.0174 2.3438 0.0569 4.1347 1.3672 6.332 1.058 1.7496 3.7126 2.0518 5.1856 0.80665 3.6134-3.0192 2.8304-8.6434 0.0391-12.232-1.0825-1.3916-2.3027-2.7425-4.1582-3.0762-0.20855-0.0366-0.42137-0.0582-0.63477-0.0645zm16.629 0.83008c-0.87995-0.0366-1.7431 0.20212-2.4512 0.8125-1.4892 1.2695-1.4811 3.1591-1.8555 5.0879-0.2035 1.0986 0.4798 2.0586 0.93555 2.9863 2.0265 4.118 6.9019 4.231 10.719 6.5586 0.4965 0.30112 1.4889-0.74744 1.8633-1.3984 1.1638-2.0509-0.75736-4.225-2.4746-5.584-2.4821-1.9532-1.4489-5.8593-4.1914-7.6172-0.76912-0.49644-1.665-0.80909-2.5449-0.8457zm-36.066 3.6328c-0.87995 0.0478-1.7623 0.40394-2.4297 0.85156-0.46388 0.31738-0.89616 1.0905-0.9043 1.709-0.0244 3.9634-1.351 8.0476 0.0977 11.832 0.87081 2.2624 2.899 5.0215 5.5195 3.8496 1.8474-0.83013 3.0273-3.0928 2.3926-5.2656-1.1638-4.0285 0.54408-8.5848-2.2637-11.979-0.65511-0.78532-1.5322-1.0459-2.4121-0.99805z" transform="matrix(.8 0 0 -.8 0 792)" fill="#ffb612"/></g></g></svg>
